HIERARCHY
ROOT Hips
{
  OFFSET -50.12 12.9442 9.62722
  CHANNELS 6 Xposition Yposition Zposition Zrotation Xrotation Yrotation
  JOINT ToSpine
  {
    OFFSET -2.69724 7.43032 -0.144315
    CHANNELS 3 Zrotation Xrotation Yrotation
    JOINT Spine
    {
      OFFSET -0.0310711 10.7595 1.96963
      CHANNELS 3 Zrotation Xrotation Yrotation
      JOINT Spine1
      {
        OFFSET 13.1342 3.43533 0.764692
        CHANNELS 3 Zrotation Xrotation Yrotation
        JOINT Neck
        {
          OFFSET 29.8703 7.82586 -0.130764
          CHANNELS 3 Zrotation Xrotation Yrotation
          JOINT Head
          {
            OFFSET 9.52751 0.295786 -0.907742
            CHANNELS 3 Zrotation Xrotation Yrotation
            End Site
            {
              OFFSET 16.4037 0.713936 2.7358
            }
          }
        }
        JOINT LeftShoulder
        {
          OFFSET 27.5574 4.95586 2.47156
          CHANNELS 3 Zrotation Xrotation Yrotation
          JOINT LeftArm
          {
            OFFSET 1.20734 -0.998971 20.1238
            CHANNELS 3 Zrotation Xrotation Yrotation
            JOINT LeftForeArm
            {
              OFFSET 26.8049 -0.0536703 -0.155908
              CHANNELS 3 Zrotation Xrotation Yrotation
              JOINT LeftHand
              {
                OFFSET 26.6817 0 0.320147
                CHANNELS 3 Zrotation Xrotation Yrotation
                End Site
                {
                  OFFSET 18.6119 0 0.382219
                }
              }
            }
          }
        }
        JOINT RightShoulder
        {
          OFFSET 27.5927 4.71444 -2.65209
          CHANNELS 3 Zrotation Xrotation Yrotation
          JOINT RightArm
          {
            OFFSET 2.83739 -1.17114 -18.7564
            CHANNELS 3 Zrotation Xrotation Yrotation
            JOINT RightForeArm
            {
              OFFSET 28.839 -0.0548439 1.22491
              CHANNELS 3 Zrotation Xrotation Yrotation
              JOINT RightHand
              {
                OFFSET 26.5114 0 -0.101894
                CHANNELS 3 Zrotation Xrotation Yrotation
                End Site
                {
                  OFFSET 18.2168 0 0
                }
              }
            }
          }
        }
      }
    }
  }
  JOINT LeftUpLeg
  {
    OFFSET -4.76168 -1.9167 -10.2353
    CHANNELS 3 Zrotation Xrotation Yrotation
    JOINT LeftLeg
    {
      OFFSET 2.55951 -42.0585 -8.02213
      CHANNELS 3 Zrotation Xrotation Yrotation
      JOINT LeftFoot
      {
        OFFSET 3.16357 -42.5282 -3.95426
        CHANNELS 3 Zrotation Xrotation Yrotation
        JOINT LeftToeBase
        {
          OFFSET 0.346054 -6.02161 12.8035
          CHANNELS 3 Zrotation Xrotation Yrotation
          End Site
          {
            OFFSET 0.134235 -1.35082 5.13018
          }
        }
      }
    }
  }
  JOINT RightUpLeg
  {
    OFFSET -4.94151 -1.41743 10.6446
    CHANNELS 3 Zrotation Xrotation Yrotation
    JOINT RightLeg
    {
      OFFSET -2.56294 -42.0364 -7.94377
      CHANNELS 3 Zrotation Xrotation Yrotation
      JOINT RightFoot
      {
        OFFSET -3.0952 -42.555 -4.02241
        CHANNELS 3 Zrotation Xrotation Yrotation
        JOINT RightToeBase
        {
          OFFSET -0.0828122 -6.13587 12.8035
          CHANNELS 3 Zrotation Xrotation Yrotation
          End Site
          {
            OFFSET -0.131328 -1.35082 5.13018
          }
        }
      }
    }
  }
}
MOTION
Frames:	17
Frame Time:	0.0333333
-49.9751 12.9628 9.56853 -17.4122 3.27217 -11.5172 -70.1915 0 88.8779 93.7798 69.3509 -1.95971 -2.64143 20.2784 -1.95082 174.214 41.9284 166.635 -172.915 80.7711 -157.148 1.19827 -8.99731 -22.9377 -126.632 -14.1846 -37.626 15.7632 -15.5565 -132.621 0.420957 0.000576292 0.35866 -1.78198 6.98098 39.9813 -125.844 15.9511 58.6183 21.7081 19.7284 129.921 0.586761 0.000330875 0.0646653 -48.6334 -3.25075 88.9514 -3.61042 37.9282 -19.7298 -2.45063 -3.73511 -0.146238 22.3829 -41.6577 3.78947 -49.2468 4.60606 95.7022 1.75278 35.5924 11.307 -3.00476 -0.573882 0.565179 7.39266 -39.7607 9.74185 
-49.9627 12.9484 9.60497 -17.3905 3.29806 -11.4556 -70.1915 0 88.8779 93.6878 69.3575 -1.91039 -2.59479 20.2496 -1.87214 174.09 42.2934 166.788 -171.962 81.1907 -158.574 1.18741 -9.08305 -22.9622 -126.544 -14.1755 -37.5786 15.8093 -15.6037 -132.62 0.420957 0.000576292 0.35866 -1.77689 6.96706 39.9623 -125.767 15.8878 58.6159 21.6148 19.6275 129.914 0.586761 0.000330875 0.0646653 -48.6596 -3.13418 89.0059 -3.61569 37.87 -19.8918 -2.3501 -3.60524 -0.142969 22.6433 -41.9887 3.95182 -49.3184 4.56808 95.414 1.72036 35.4523 11.5444 -2.83425 -0.497333 0.539838 7.35207 -39.4305 9.94749 
-49.9965 12.954 9.6122 -17.2934 3.35651 -11.4343 -70.1915 0 88.8779 93.9687 69.301 -2.22256 -2.57899 20.2033 -1.89524 173.349 42.642 167.388 -168.536 81.6621 -164.601 1.19011 -9.04579 -22.7585 -126.45 -13.8337 -37.4747 16.288 -16.0575 -132.543 0.420957 0.000576292 0.35866 -1.77018 6.97927 39.8204 -125.443 15.5399 58.4029 21.8429 19.898 129.962 0.586761 0.000330875 0.0646653 -48.7719 -3.16818 88.8195 -3.59814 37.8215 -19.7215 -2.62898 -3.55722 -0.11085 22.9136 -42.2372 4.31938 -49.377 4.48046 95.204 1.73418 35.5322 11.9637 -2.72671 -0.18704 0.510457 7.33509 -40.0556 9.14072 
-50.0237 12.9589 9.62734 -17.1639 3.3547 -11.4172 -70.1915 0 88.8779 94.3185 69.335 -2.71222 -2.63979 20.1924 -1.7304 173.743 43.2732 166.594 -162.785 82.1422 -171.306 1.19147 -9.05163 -22.9528 -126.467 -14.1314 -37.6952 15.7347 -15.5455 -132.654 0.420957 0.000576292 0.35866 -1.76078 6.94044 39.8351 -125.385 15.7738 58.3806 21.4852 19.6277 130.1 0.586761 0.000330875 0.0646653 -48.8645 -3.1042 88.8774 -3.6086 37.8636 -19.8029 -2.53407 -3.47358 -0.111714 23.4434 -42.778 4.88898 -49.5852 4.66038 95.6986 1.73198 35.4602 11.4687 -1.97278 -0.730089 0.445053 7.17018 -39.0579 9.56991 
-50.0245 12.9444 9.64945 -17.2096 3.3873 -11.3492 -70.1915 0 88.8779 94.2435 69.2721 -2.58574 -2.69999 20.1314 -1.73249 174.393 44.1705 166.437 -155.906 82.9198 -178.427 1.17325 -9.20236 -23.1063 -126.391 -14.52 -37.7288 16.0941 -15.8523 -132.537 0.420957 0.000576292 0.35866 -1.77824 6.98572 39.9102 -125.175 15.7797 58.2877 21.5873 19.6721 130.015 0.586761 0.000330875 0.0646653 -48.7841 -3.0441 88.7684 -3.62099 37.9265 -19.8802 -2.64739 -3.66704 -0.12022 23.7541 -43.143 5.11899 -49.5267 4.79942 95.7949 1.7509 35.5148 11.8223 -2.22372 -0.574663 0.467779 6.86176 -39.2114 7.93472 
-50.037 12.9452 9.64861 -17.2506 3.42549 -11.3981 -70.1915 0 88.8779 94.2322 69.2304 -2.65054 -2.80743 20.0893 -1.69787 175.606 44.3789 165.454 -151.436 82.8721 177.437 1.1945 -9.02845 -22.9681 -126.565 -14.2706 -37.7397 16.1431 -15.9334 -132.589 0.420957 0.000576292 0.35866 -1.79032 7.01866 39.9554 -125.311 15.7646 58.348 21.5827 19.6256 129.958 0.586761 0.000330875 0.0646653 -48.7592 -3.09448 88.7228 -3.64302 37.9198 -20.2021 -2.71089 -3.85304 -0.133057 24.7915 -43.7471 7.047 -49.4358 4.67864 95.6355 1.72323 35.5628 12.095 -2.5714 -0.26359 0.493854 7.11807 -40.2813 7.93585 
-50.0507 12.9466 9.66677 -17.1533 3.2256 -11.5287 -70.1915 0 88.8779 94.6711 69.3349 -3.25976 -2.88552 20.1799 -1.58846 175.596 44.7391 166.286 -154.064 83.4889 179.467 1.19123 -9.06862 -23.1571 -126.88 -14.5035 -37.8266 16.1319 -15.9146 -132.577 0.420957 0.000576292 0.35866 -1.79224 7.0152 39.9959 -125.648 15.7404 58.4453 21.6772 19.6494 129.856 0.586761 0.000330875 0.0646653 -48.9338 -3.0246 88.9462 -3.66878 37.9235 -20.5671 -2.75515 -3.70701 -0.11388 24.5662 -43.4235 7.05225 -49.5689 4.80236 96.2087 1.77027 35.6135 11.6936 -2.28483 -0.564897 0.474678 7.06964 -39.7107 8.33415 
-50.066 12.9542 9.68927 -17.1187 3.0981 -11.546 -70.1915 0 88.8779 95.2342 69.348 -3.74517 -3.0473 20.2666 -1.7209 176.644 44.9471 165.83 -155.197 83.7177 -178.788 1.17347 -9.20869 -23.2334 -127.077 -14.8865 -37.8044 15.9678 -15.7787 -132.638 0.420957 0.000576292 0.35866 -1.80722 7.02276 40.1779 -126.065 15.6492 58.4887 21.5958 19.5516 129.839 0.586761 0.000330875 0.0646653 -48.9941 -2.89417 89.0544 -3.68612 37.9507 -20.7704 -2.86502 -3.80013 -0.113174 25.4281 -44.1009 8.2142 -49.6383 4.93049 96.5126 1.74861 35.6014 11.3369 -1.77457 -0.836767 0.427432 7.05871 -38.8298 9.31396 
-50.0554 12.968 9.64829 -17.2097 3.49652 -11.386 -70.1915 0 88.8779 94.7368 69.1748 -3.16527 -3.05691 20.0654 -1.72058 177.647 44.9738 165.458 -156.567 83.7688 -176.574 1.16076 -9.31003 -23.3055 -127.102 -14.9645 -37.6064 15.8789 -15.7069 -132.675 0.420957 0.000576292 0.35866 -1.79491 7.00039 40.0899 -126.419 15.5525 58.3343 19.338 18.0602 131.06 0.586761 0.000330875 0.0646653 -48.7026 -3.05611 88.6029 -3.73228 38.1199 -21.1762 -2.31526 -3.27636 -0.113678 25.649 -43.9481 9.19277 -49.5491 4.74966 96.1303 1.72802 35.4663 11.6921 -1.5647 -0.823537 0.401373 6.93741 -38.7416 8.82946 
-50.0434 12.9625 9.65375 -17.2662 3.47358 -11.3506 -70.1915 0 88.8779 94.548 69.2108 -3.00357 -3.05994 20.0467 -1.56189 178.007 45.3325 165.94 -161.583 84.3199 -171.2 1.13088 -9.54222 -23.4894 -127.348 -15.271 -37.4147 15.826 -15.6502 -132.675 0.420957 0.000576292 0.35866 -1.79206 6.97946 40.13 -126.762 15.6643 58.4665 19.9347 18.5092 130.804 0.586761 0.000330875 0.0646653 -48.6792 -3.0627 88.4145 -3.74044 38.1067 -21.3164 -2.27311 -3.31013 -0.121841 24.6231 -42.9427 8.27275 -49.4949 4.8459 96.1711 1.7061 35.441 11.7269 -2.18502 -0.324771 0.447851 7.08248 -39.7646 8.34104 
-50.0515 12.9581 9.64655 -17.2704 3.45843 -11.3585 -70.1915 0 88.8779 94.6748 69.2294 -3.17156 -3.14983 20.0517 -1.47854 178.439 45.439 165.929 -165.032 84.4787 -167.762 1.12035 -9.61947 -23.4505 -127.669 -15.1642 -37.1155 15.7364 -15.5885 -132.734 0.420957 0.000576292 0.35866 -1.79872 6.97065 40.2583 -127.035 15.8086 58.5801 19.8915 18.4532 130.788 0.586761 0.000330875 0.0646653 -48.7049 -3.15976 88.1285 -3.72068 38.083 -21.0646 -2.72433 -3.8204 -0.12824 24.2815 -42.7365 7.6566 -49.4354 4.80741 96.1363 1.7039 35.4885 11.4926 -2.21739 -0.22204 0.446443 7.34062 -39.944 9.29931 
-50.0731 12.9588 9.63483 -17.2488 3.43623 -11.3636 -70.1915 0 88.8779 94.7747 69.1876 -3.28878 -3.17054 19.9981 -1.4457 178.531 45.326 165.671 -164.021 84.3246 -169.098 1.14032 -9.46605 -23.3584 -128.141 -15.0159 -36.9215 15.5866 -15.4134 -132.702 0.420957 0.000576292 0.35866 -1.81448 7.03594 40.2299 -127.105 15.6209 58.5001 19.7605 18.3576 130.847 0.586761 0.000330875 0.0646653 -48.7199 -3.16902 88.085 -3.71953 38.116 -20.9921 -2.70911 -3.87973 -0.135975 24.1094 -42.5959 7.42206 -49.49 4.81098 96.1659 1.69197 35.4258 11.5231 -2.50174 -0.18736 0.481352 7.53432 -40.2979 9.74671 
-50.0856 12.9623 9.6243 -17.2077 3.4039 -11.3858 -70.1915 0 88.8779 95.2041 69.1018 -3.73359 -3.35201 19.9369 -1.46301 178.855 45.2089 165.415 -165.744 84.1951 -167.366 1.17058 -9.23065 -23.2278 -128.386 -14.8382 -36.7102 15.6422 -15.452 -132.67 0.420957 0.000576292 0.35866 -1.85725 7.17461 40.2983 -127.07 15.5926 58.4863 19.9441 18.459 130.716 0.586761 0.000330875 0.0646653 -48.7912 -3.12951 88.1478 -3.7151 38.0322 -21.0659 -2.79204 -3.93188 -0.133426 24.068 -42.5375 7.41905 -49.5811 4.81655 96.3097 1.68885 35.3841 11.4556 -1.99217 -0.603441 0.440008 7.40493 -39.6307 9.95674 
-50.092 12.9737 9.62486 -17.1856 3.33085 -11.4201 -70.1915 0 88.8779 95.4339 69.1546 -4.12055 -3.48057 19.9389 -1.23938 178.984 45.1842 165.454 -167.405 84.184 -165.253 1.19026 -9.06643 -23.0357 -128.516 -14.3394 -36.422 15.7009 -15.5227 -132.689 0.420957 0.000576292 0.35866 -1.84505 7.12067 40.3337 -126.959 15.6594 58.5085 19.7377 18.2766 130.761 0.586761 0.000330875 0.0646653 -48.8345 -3.00201 88.4106 -3.75215 38.0386 -21.606 -2.79837 -3.90748 -0.130343 24.0521 -42.3733 7.73818 -49.5437 4.81491 96.249 1.70121 35.4542 11.5516 -2.84726 -0.134568 0.523465 7.6618 -40.722 9.8135 
-50.0892 12.9603 9.60666 -17.1565 3.36451 -11.3676 -70.1915 0 88.8779 95.3271 69.1097 -3.92457 -3.37752 19.9109 -1.32495 179.344 45.1071 165.268 -167.849 84.0899 -164.194 1.18122 -9.12333 -22.8633 -128.431 -14.345 -36.2766 15.5699 -15.3767 -132.671 0.420957 0.000576292 0.35866 -1.84653 7.1144 40.378 -126.796 15.7235 58.4958 19.8608 18.302 130.61 0.586761 0.000330875 0.0646653 -48.8494 -2.79637 88.744 -3.7966 38.0704 -22.2294 -2.68661 -3.87111 -0.137372 24.6447 -42.7368 8.79547 -49.5333 4.84151 96.1245 1.66573 35.4825 11.5685 -3.48155 0.250846 0.587726 7.91421 -41.6232 9.85431 
-50.1167 12.9839 9.6028 -17.1032 3.33256 -11.411 -70.1915 0 88.8779 95.5709 69.1094 -4.25099 -3.4269 19.9198 -1.31787 179.443 45.1153 164.913 -165.637 84.0485 -166.254 1.17136 -9.19059 -22.7234 -128.1 -14.2781 -36.1004 15.5534 -15.3892 -132.725 0.420957 0.000576292 0.35866 -1.84454 7.11843 40.3346 -126.513 15.5817 58.3913 19.7901 18.2336 130.616 0.586761 0.000330875 0.0646653 -48.9026 -2.83891 88.6998 -3.80283 38.0814 -22.3067 -2.98797 -4.15275 -0.137898 24.2772 -42.1393 8.9876 -49.5827 4.80848 96.2925 1.65581 35.497 11.1504 -2.46608 -0.525996 0.495083 7.82644 -40.0664 11.327 
-50.1223 13.0029 9.61349 -17.0288 3.26685 -11.4291 -70.1915 0 88.8779 95.8031 69.1192 -4.57728 -3.43802 19.9088 -1.23115 179.347 45.1695 164.913 -166.136 84.1051 -166.041 1.17862 -9.1327 -22.7124 -127.548 -14.2517 -35.9987 15.5608 -15.3813 -132.697 0.420957 0.000576292 0.35866 -1.85694 7.20689 40.1733 -126.379 15.5645 58.1904 19.5347 18.0705 130.764 0.586761 0.000330875 0.0646653 -49.0072 -2.91653 88.5259 -3.79783 38.0634 -22.2608 -2.92432 -4.05602 -0.133905 24.3918 -41.8727 9.97272 -49.6079 4.84303 96.3335 1.69648 35.5437 10.8783 -3.02302 -0.149064 0.546441 8.16384 -40.7594 11.9223 
